<?xml version="1.0"?>
<svg xmlns="http://www.w3.org/2000/svg" viewBox="0 0 74 74" width="512" height="512"><g id="Numbers"><text transform="translate(31.995 -266.544)" font-size="18" fill="red" font-family="ArialMT, Arial">6<tspan x="-5.005" y="124">16</tspan><tspan x="-5.005" y="248">26</tspan><tspan x="-5.005" y="372">36</tspan><tspan x="-5.005" y="496">46</tspan><tspan x="-5.005" y="620">56</tspan><tspan x="-5.005" y="744">66</tspan><tspan x="-5.005" y="868">76</tspan><tspan x="-5.005" y="992">86</tspan><tspan x="-5.005" y="1116">96</tspan><tspan x="-10.011" y="1240">106</tspan><tspan x="-9.343" y="1364" letter-spacing="-0.074em">1</tspan><tspan x="-0.668" y="1364">16</tspan><tspan x="-10.011" y="1488">126</tspan><tspan x="-10.011" y="1612">136</tspan><tspan x="-10.011" y="1736">146</tspan><tspan x="-10.011" y="1860">156</tspan><tspan x="-10.011" y="1984">166</tspan><tspan x="-10.011" y="2108">176</tspan><tspan x="-10.011" y="2232">186</tspan><tspan x="-10.011" y="2356">196</tspan><tspan x="-10.011" y="2480">206</tspan><tspan x="-10.011" y="2604">216</tspan><tspan x="-10.011" y="2728">226</tspan><tspan x="-10.011" y="2852">236</tspan><tspan x="-10.011" y="2976">246</tspan><tspan x="-10.011" y="3100">256</tspan><tspan x="-10.011" y="3224">266</tspan><tspan x="-10.011" y="3348">276</tspan><tspan x="-10.011" y="3472">286</tspan><tspan x="-10.011" y="3596">296</tspan></text></g><g id="_2_PT" data-name="2 PT"><path d="M37,72A35,35,0,1,1,72,37,35.04,35.04,0,0,1,37,72ZM37,4A33,33,0,1,0,70,37,33.037,33.037,0,0,0,37,4Z"/><path d="M48.514,56a1,1,0,0,1-.707-.293L37,44.9,26.193,55.707a1,1,0,0,1-1.414,0l-6.486-6.486a1,1,0,0,1,0-1.414L29.1,37,18.293,26.193a1,1,0,0,1,0-1.414l6.486-6.486a1,1,0,0,1,1.414,0L37,29.1,47.807,18.293a1,1,0,0,1,1.414,0l6.486,6.486a1,1,0,0,1,0,1.414L44.9,37,55.707,47.807a1,1,0,0,1,0,1.414l-6.486,6.486A1,1,0,0,1,48.514,56ZM37,42.486a1,1,0,0,1,.707.293L48.514,53.586l5.072-5.072L42.779,37.707a1,1,0,0,1,0-1.414L53.586,25.486l-5.072-5.072L37.707,31.221a1,1,0,0,1-1.414,0L25.486,20.414l-5.072,5.072L31.221,36.293a1,1,0,0,1,0,1.414L20.414,48.514l5.072,5.072L36.293,42.779A1,1,0,0,1,37,42.486Z"/></g></svg>
