<?xml version="1.0" encoding="utf-8"?>
<!-- Generator: Adobe Illustrator 25.1.0, SVG Export Plug-In . SVG Version: 6.00 Build 0)  -->
<svg version="1.1" id="Capa_1" xmlns="http://www.w3.org/2000/svg" xmlns:xlink="http://www.w3.org/1999/xlink" x="0px" y="0px"
	 viewBox="0 0 474 101.8" style="enable-background:new 0 0 474 101.8;" xml:space="preserve">
<style type="text/css">
	.st0{fill:#C7C7D5;}
</style>
<g id="Capa_2_1_">
	<g id="Capa_1-2">
		<path class="st0" d="M70.6,0c4.2,0,8.4,0.8,12.2,2.5c7.5,3.2,13.4,9.1,16.6,16.6c1.7,3.9,2.5,8,2.5,12.2v70.6H78.4V31.3
			c0-2-0.8-4-2.2-5.5c-3.1-3-8.1-3-11.2,0c-1.5,1.4-2.3,3.4-2.3,5.5v70.6H39.3V31.3c0-2.1-0.8-4-2.3-5.5c-1.5-1.5-3.5-2.3-5.6-2.3
			c-2.1-0.1-4.1,0.8-5.6,2.3c-1.5,1.4-2.3,3.4-2.3,5.5v70.6H0V31.3c0-4.2,0.8-8.4,2.5-12.2c1.6-3.7,3.9-7.1,6.8-9.9
			c2.9-2.8,6.3-5.1,10-6.7c3.8-1.7,8-2.5,12.2-2.5c7.1,0,14,2.4,19.5,6.8c2.7-2.1,5.8-3.8,9.1-5C63.4,0.6,67,0,70.6,0z"/>
		<path class="st0" d="M177,101.8l-15.7-58.5l-15.7,58.5h-23.4L149.4,0h23.9l27.2,101.8H177z"/>
		<path class="st0" d="M276.8,23.6h-23.6v78.3h-23.4V23.6h-23.6V0h70.6V23.6z"/>
		<path class="st0" d="M349.8,76.1c1.5-1.5,2.3-3.5,2.2-5.5h23.4c0.1,4.2-0.8,8.4-2.4,12.2c-3.2,7.5-9.1,13.4-16.6,16.6
			c-3.9,1.7-8,2.5-12.2,2.5h-15.8c-4.2,0-8.4-0.8-12.2-2.5c-7.5-3.2-13.4-9.1-16.6-16.6c-1.7-3.9-2.5-8-2.5-12.2V31.3
			c0-4.2,0.8-8.4,2.5-12.2c3.2-7.5,9.1-13.4,16.6-16.6c3.9-1.7,8-2.5,12.2-2.5h15.7c4.2,0,8.4,0.8,12.2,2.5
			c7.5,3.2,13.4,9.1,16.6,16.6c1.7,3.9,2.5,8,2.5,12.2H352c0-2.1-0.8-4-2.3-5.5c-1.5-1.5-3.5-2.3-5.6-2.3h-15.7
			c-2.1-0.1-4.1,0.8-5.6,2.3c-1.5,1.4-2.3,3.4-2.2,5.5v39.3c0,2.1,0.8,4.1,2.2,5.5c1.5,1.5,3.5,2.4,5.6,2.3h15.7
			C346.3,78.5,348.3,77.6,349.8,76.1z"/>
		<path class="st0" d="M474,0v101.8h-23.4V62.7h-31.4v39.1h-23.4V0h23.4v39.1h31.4V0H474z"/>
		<path class="st0" d="M455.9,85.2l3.7,1.5l-0.2,0.2h-0.2c-0.3,0-0.7,0.2-0.9,0.5c-0.9,1-1.5,2.3-1.4,3.7c0,0.6,0.1,1.1,0.3,1.7
			c0.1,0.3,0.4,0.6,0.7,0.8c0.3,0.2,0.6,0.3,1,0.3c0.5,0,1.1-0.3,1.2-0.8c0.2-0.6,0.3-1.2,0.4-1.8l0.2-1.4c0.1-0.7,0.3-1.4,0.5-2
			c0.2-0.5,0.5-1,0.9-1.4c0.4-0.4,0.9-0.8,1.5-1c0.6-0.2,1.3-0.3,2-0.3c1.1,0,2.1,0.3,3,0.8c0.8,0.6,1.4,1.4,1.7,2.3
			c0.3,0.8,0.4,1.7,0.4,2.5c0,1.7-0.6,3.4-1.5,4.8c-0.1,0.2-0.2,0.4-0.3,0.6c0,0.1,0.1,0.2,0.3,0.4L469,97l-3.9-1.3l0.2-0.3h0.2
			c0.4,0,0.7-0.1,1-0.4c0.5-0.5,0.9-1.1,1.2-1.8c0.3-0.7,0.4-1.5,0.4-2.2c0-0.7-0.2-1.4-0.5-2c-0.2-0.3-0.5-0.6-0.8-0.7
			c-0.3-0.2-0.6-0.3-1-0.3c-0.5,0-0.9,0.2-1.1,0.6c-0.2,0.6-0.4,1.2-0.4,1.8l-0.2,1.4c-0.1,0.7-0.2,1.3-0.4,2
			c-0.1,0.4-0.3,0.8-0.5,1.1c-0.4,0.6-0.9,1-1.6,1.3c-0.7,0.3-1.4,0.4-2.2,0.4c-1.2,0-2.3-0.4-3.3-1.2c-1.2-1-1.8-2.6-1.7-4.2
			c0-0.7,0.1-1.5,0.3-2.2c0.3-0.9,0.7-1.7,1.2-2.5c0.1-0.2,0.2-0.4,0.3-0.6c0-0.2-0.1-0.3-0.3-0.4L455.9,85.2z"/>
		<path class="st0" d="M464.1,73.9h5.2c0.2,0,0.4,0,0.5-0.1c0.1-0.1,0.3-0.3,0.3-0.4h0.4v3.8h-0.4c0-0.2-0.1-0.3-0.3-0.4
			c-0.2-0.1-0.3-0.1-0.5-0.1l-13.5-0.1c-0.2,0-0.4,0-0.5,0.1c-0.2,0.1-0.3,0.3-0.3,0.5h-0.4l0-7.6c0-0.7,0.1-1.4,0.2-2.1
			c0.2-0.5,0.4-1,0.8-1.4c0.4-0.5,1-0.8,1.6-1c0.7-0.2,1.4-0.3,2.1-0.3c1,0,2,0.2,2.8,0.7c0.6,0.3,1.2,0.9,1.5,1.5
			c0.3,0.8,0.5,1.7,0.4,2.6L464.1,73.9z M461.5,73.9v-4c0-0.6-0.1-1.2-0.3-1.7c-0.2-0.2-0.4-0.4-0.7-0.5c-0.3-0.1-0.7-0.2-1.1-0.2
			c-0.4,0-0.7,0.1-1.1,0.2c-0.3,0.1-0.5,0.3-0.7,0.5c-0.3,0.5-0.4,1.1-0.4,1.7v4L461.5,73.9z"/>
		<path class="st0" d="M454.5,50c-0.1-1.9,0.8-3.8,2.3-5c1.7-1.4,3.9-2,6.1-1.9c1.5,0,2.9,0.3,4.3,1c2.4,1,3.9,3.4,3.8,6
			c0.1,1.9-0.8,3.8-2.3,5c-0.9,0.7-1.8,1.2-2.9,1.5c-1,0.3-2.1,0.5-3.1,0.4c-1.5,0-3-0.3-4.4-1C455.9,55,454.4,52.6,454.5,50z
			 M457.2,50c0,1.1,0.5,2.2,1.3,2.9c2.5,1.8,5.9,1.9,8.4,0.1c0.9-0.7,1.4-1.8,1.4-2.9c0-1.1-0.5-2.2-1.3-2.9c-0.6-0.5-1.3-0.9-2-1.1
			c-0.7-0.2-1.4-0.3-2.1-0.3c-1.5-0.1-3.1,0.4-4.3,1.3C457.7,47.8,457.2,48.9,457.2,50z"/>
		<path class="st0" d="M464.4,31.5h5.3c0.2,0,0.4,0,0.5-0.1c0.1-0.1,0.3-0.3,0.3-0.4h0.4v3.8h-0.4c-0.1-0.2-0.2-0.3-0.3-0.5
			c-0.2-0.1-0.4-0.1-0.5-0.1l-13.5-0.1c-0.2,0-0.4,0-0.5,0.1c-0.1,0.1-0.3,0.3-0.3,0.4h-0.4v-7.6c0-0.7,0.1-1.5,0.2-2.2
			c0.1-0.5,0.4-1,0.7-1.4c0.5-0.5,1-0.8,1.7-1c0.7-0.2,1.4-0.3,2.1-0.3c2.6,0,4.1,1.1,4.5,3.3l4.4-2.3c0.5-0.3,1-0.6,1.5-0.9
			c0.2-0.2,0.4-0.4,0.4-0.7h0.4v4.4h-0.4c-0.1-0.3-0.2-0.5-0.4-0.5c-0.4,0.1-0.7,0.2-1,0.4l-4.7,2.4L464.4,31.5z M461.7,31.5v-4.1
			c0-0.4,0-0.9-0.1-1.3c0-0.2-0.1-0.5-0.3-0.7c-1-0.9-2.5-0.9-3.5,0c-0.1,0.2-0.3,0.4-0.3,0.7c-0.1,0.4-0.1,0.9-0.1,1.3v4.1H461.7z"
			/>
		<path class="st0" d="M457.7,7.1l12.1,0.1c0.2,0,0.4,0,0.5-0.1c0.1-0.1,0.2-0.3,0.3-0.4h0.4v3.8h-0.4c-0.1-0.2-0.2-0.3-0.3-0.4
			c-0.2-0.1-0.4-0.1-0.5-0.1l-12.1-0.1v3.8c0,0.2,0,0.3,0.2,0.4c0.2,0.1,0.4,0.2,0.6,0.2v0.3h-4.1v-0.3c0.2,0,0.4-0.1,0.6-0.2
			c0.1-0.1,0.2-0.2,0.2-0.4l0.1-10.2c0-0.2,0-0.3-0.2-0.4c-0.2-0.1-0.4-0.2-0.6-0.2V2.3h4.1v0.3c-0.2,0-0.4,0.1-0.6,0.2
			c-0.1,0.1-0.2,0.3-0.2,0.4L457.7,7.1z"/>
	</g>
</g>
</svg>
