<svg xmlns="http://www.w3.org/2000/svg" viewBox="0 0 474.04 101.82"><defs><style>.cls-1{fill:#1d1d1b;}.cls-2{fill:#1d71b8;}.cls-3{fill:#fff;}</style></defs><title>logo-match-01</title><g id="Capa_2" data-name="Capa 2"><g id="Capa_1-2" data-name="Capa 1"><path class="cls-1" d="M70.55,0A30.26,30.26,0,0,1,82.77,2.47,31.48,31.48,0,0,1,99.35,19.06a30.18,30.18,0,0,1,2.47,12.21v70.55H78.4V31.27a7.43,7.43,0,0,0-2.25-5.45,8.07,8.07,0,0,0-11.2,0,7.4,7.4,0,0,0-2.26,5.45v70.55H39.27V31.27A7.43,7.43,0,0,0,37,25.82a7.63,7.63,0,0,0-5.6-2.26,7.62,7.62,0,0,0-5.6,2.26,7.4,7.4,0,0,0-2.26,5.45v70.55H0V31.27A30.18,30.18,0,0,1,2.47,19.06a31.3,31.3,0,0,1,6.77-9.9,32.79,32.79,0,0,1,10-6.69A30.23,30.23,0,0,1,31.42,0,31,31,0,0,1,50.91,6.84a32.59,32.59,0,0,1,9.09-5A30.79,30.79,0,0,1,70.55,0Z"/><path class="cls-2" d="M177,101.82,161.31,43.35,145.6,101.82H122.18L149.38,0h23.86l27.2,101.82Z"/><path class="cls-1" d="M276.81,23.56H253.24v78.26H229.82V23.56H206.26V0h70.55Z"/><path class="cls-1" d="M349.75,76.08A7.72,7.72,0,0,0,352,70.55h23.41A30.26,30.26,0,0,1,373,82.77a31.5,31.5,0,0,1-16.58,16.58,30.23,30.23,0,0,1-12.22,2.47H328.44a30.26,30.26,0,0,1-12.22-2.47,31.5,31.5,0,0,1-16.58-16.58,30.26,30.26,0,0,1-2.47-12.22V31.27a30.18,30.18,0,0,1,2.47-12.21A31.48,31.48,0,0,1,316.22,2.47,30.26,30.26,0,0,1,328.44,0h15.71a30.23,30.23,0,0,1,12.22,2.47A31.48,31.48,0,0,1,373,19.06a30.18,30.18,0,0,1,2.47,12.21H352a7.44,7.44,0,0,0-2.26-5.45,7.62,7.62,0,0,0-5.6-2.26H328.44a7.62,7.62,0,0,0-5.6,2.26,7.43,7.43,0,0,0-2.25,5.45V70.55a7.71,7.71,0,0,0,2.25,5.53,7.48,7.48,0,0,0,5.6,2.32h15.71A7.48,7.48,0,0,0,349.75,76.08Z"/><path class="cls-1" d="M474,0V101.82H450.63V62.69H419.21v39.13H395.79V0h23.42V39.13h31.42V0Z"/><path class="cls-3" d="M455.93,85.24l3.74,1.48-.19.25h-.19a1.16,1.16,0,0,0-.85.51A5.29,5.29,0,0,0,457,91.18a4.18,4.18,0,0,0,.29,1.67,2,2,0,0,0,.69.85,1.72,1.72,0,0,0,1,.33,1.2,1.2,0,0,0,1.23-.82,9.21,9.21,0,0,0,.36-1.83l.2-1.4a9.22,9.22,0,0,1,.49-2,4.37,4.37,0,0,1,.86-1.36,4,4,0,0,1,1.51-1,5.72,5.72,0,0,1,2-.34,5.47,5.47,0,0,1,3,.85,4.34,4.34,0,0,1,1.74,2.34,7.4,7.4,0,0,1,.42,2.52,8.7,8.7,0,0,1-1.55,4.75,2.29,2.29,0,0,0-.31.6c0,.07.09.2.26.36L469,97l-3.9-1.34.16-.26h.16a1.44,1.44,0,0,0,1-.38,4.63,4.63,0,0,0,1.18-1.78A6,6,0,0,0,468,91a3.67,3.67,0,0,0-.51-2,2.19,2.19,0,0,0-.77-.74,1.94,1.94,0,0,0-1-.28,1.17,1.17,0,0,0-1.14.64,6.81,6.81,0,0,0-.44,1.83l-.2,1.37a13.89,13.89,0,0,1-.37,2,3.8,3.8,0,0,1-.55,1.13,3.5,3.5,0,0,1-1.58,1.27,5.33,5.33,0,0,1-2.18.4A5.2,5.2,0,0,1,456,95.41a5,5,0,0,1-1.71-4.18,7.25,7.25,0,0,1,.32-2.17,14.75,14.75,0,0,1,1.16-2.5,2.84,2.84,0,0,0,.28-.63.67.67,0,0,0-.27-.44Z"/><path class="cls-3" d="M464.11,73.86l5.25,0a1,1,0,0,0,.55-.13.79.79,0,0,0,.3-.44h.37l0,3.79h-.38a.78.78,0,0,0-.3-.45,1,1,0,0,0-.53-.13l-13.49-.09a1,1,0,0,0-.55.13A.86.86,0,0,0,455,77h-.37l.05-7.59a7.66,7.66,0,0,1,.25-2.1,3.35,3.35,0,0,1,.81-1.37,4,4,0,0,1,1.57-1,6.78,6.78,0,0,1,2.13-.33,5.82,5.82,0,0,1,2.82.68,3.29,3.29,0,0,1,1.46,1.52,6.23,6.23,0,0,1,.42,2.62Zm-2.62,0,0-4a3.24,3.24,0,0,0-.33-1.71,1.6,1.6,0,0,0-.7-.5,2.87,2.87,0,0,0-1.07-.2,3.06,3.06,0,0,0-1.06.18,1.56,1.56,0,0,0-.71.5,3.24,3.24,0,0,0-.35,1.7l0,4Z"/><path class="cls-3" d="M454.53,50a6.19,6.19,0,0,1,2.28-5,9.18,9.18,0,0,1,6.1-1.93,9.79,9.79,0,0,1,4.27,1A6.26,6.26,0,0,1,471,50.1a6.15,6.15,0,0,1-2.28,5,8.17,8.17,0,0,1-2.89,1.49,10.37,10.37,0,0,1-3.12.44,10,10,0,0,1-4.37-1A6.29,6.29,0,0,1,454.53,50Zm2.7,0a3.64,3.64,0,0,0,1.34,2.9,7.06,7.06,0,0,0,8.36.06,3.7,3.7,0,0,0,1.38-2.91A3.66,3.66,0,0,0,467,47.16a5.36,5.36,0,0,0-2-1.07,7,7,0,0,0-2.14-.33,6.2,6.2,0,0,0-4.27,1.34A3.85,3.85,0,0,0,457.23,50Z"/><path class="cls-3" d="M464.35,31.55l5.29,0a1,1,0,0,0,.54-.12.82.82,0,0,0,.3-.44h.38l0,3.79h-.37a1,1,0,0,0-.3-.45,1,1,0,0,0-.54-.12l-13.49-.09a1,1,0,0,0-.54.12.85.85,0,0,0-.31.44h-.37l0-7.6a9.64,9.64,0,0,1,.23-2.21,3.41,3.41,0,0,1,.74-1.41,3.64,3.64,0,0,1,1.66-1,6.8,6.8,0,0,1,2.14-.32c2.6,0,4.12,1.13,4.54,3.34l4.42-2.33a10.54,10.54,0,0,0,1.49-.91,1,1,0,0,0,.38-.7h.37l0,4.39h-.37c-.06-.3-.2-.46-.42-.46a3.59,3.59,0,0,0-1,.41l-4.71,2.43Zm-2.62,0,0-4.09a7.68,7.68,0,0,0-.07-1.29,1.64,1.64,0,0,0-.28-.68,2.55,2.55,0,0,0-3.46,0,1.71,1.71,0,0,0-.3.68,8.76,8.76,0,0,0-.07,1.29l0,4.09Z"/><path class="cls-3" d="M457.71,7.07l12.08.08a1,1,0,0,0,.55-.12.9.9,0,0,0,.3-.44H471l0,3.79h-.37a1,1,0,0,0-.3-.45,1,1,0,0,0-.55-.12l-12.08-.08,0,3.77a.5.5,0,0,0,.16.41,1.22,1.22,0,0,0,.58.24v.28l-4.12,0v-.29a1.4,1.4,0,0,0,.59-.23.49.49,0,0,0,.16-.4l.07-10.2a.54.54,0,0,0-.16-.42,1.41,1.41,0,0,0-.58-.23V2.35l4.12,0v.28a1.35,1.35,0,0,0-.58.23.53.53,0,0,0-.17.42Z"/></g></g></svg>